<?xml version="1.0" standalone="no"?>
<!DOCTYPE svg PUBLIC "-//W3C//DTD SVG 20010904//EN"
 "http://www.w3.org/TR/2001/REC-SVG-20010904/DTD/svg10.dtd">
<svg version="1.0" xmlns="http://www.w3.org/2000/svg"
 width="700.000000pt" height="700.000000pt" viewBox="0 0 700.000000 700.000000"
 preserveAspectRatio="xMidYMid meet">
<metadata>
Created by potrace 1.14, written by Peter Selinger 2001-2017
</metadata>
<g transform="translate(0.000000,700.000000) scale(0.100000,-0.100000)"
fill="#000000" stroke="none">
<path d="M3337 6984 c-1 -1 -49 -5 -106 -9 -57 -3 -111 -8 -120 -10 -9 -1 -43
-6 -76 -10 -129 -16 -164 -23 -315 -57 -176 -39 -411 -116 -581 -188 -135 -58
-350 -166 -401 -201 -14 -11 -28 -19 -31 -19 -10 0 -211 -136 -297 -201 -285
-214 -543 -478 -748 -765 -75 -106 -212 -327 -212 -343 0 -5 -4 -11 -8 -13
-10 -4 -91 -170 -152 -308 -107 -246 -205 -602 -245 -893 -3 -20 -7 -52 -9
-70 -20 -138 -26 -516 -12 -677 13 -155 35 -312 61 -430 3 -14 8 -38 11 -55
37 -207 182 -605 310 -852 74 -141 240 -410 274 -443 3 -3 25 -32 49 -64 144
-194 398 -454 591 -606 36 -28 72 -57 81 -64 44 -37 245 -171 334 -223 169
-100 415 -215 585 -275 124 -43 347 -109 415 -121 11 -2 31 -7 45 -10 25 -6
118 -23 175 -32 17 -3 53 -8 80 -11 28 -3 55 -7 62 -9 72 -23 714 -24 785 -1
7 3 41 7 75 11 35 3 68 8 75 10 7 2 31 6 53 9 22 3 65 10 95 16 30 6 66 13 80
16 45 9 214 55 305 84 779 248 1465 788 1905 1500 52 83 201 371 229 440 8 19
22 53 32 75 30 66 116 333 143 440 24 95 58 264 70 350 4 22 9 56 11 76 32
213 36 599 10 809 -3 19 -7 58 -10 85 -6 48 -10 76 -19 122 -3 11 -8 43 -12
70 -5 26 -9 50 -9 53 -1 3 -7 32 -14 65 -20 95 -98 358 -137 463 -369 987
-1184 1772 -2179 2095 -121 39 -319 93 -377 101 -21 3 -57 10 -80 15 -24 5
-63 12 -88 16 -25 3 -72 10 -105 15 -102 15 -233 23 -418 24 -98 1 -179 1
-180 0z"/>
</g>
</svg>
