<?xml version="1.0" encoding="UTF-8" standalone="no"?>
<svg
   width="293.89124"
   height="293.89124"
   viewBox="0 0 77.758723 77.758724"
   version="1.1"
   id="svg5113"
   xmlns="http://www.w3.org/2000/svg"
   xmlns:svg="http://www.w3.org/2000/svg"
   xmlns:rdf="http://www.w3.org/1999/02/22-rdf-syntax-ns#"
   xmlns:cc="http://creativecommons.org/ns#"
   xmlns:dc="http://purl.org/dc/elements/1.1/">
  <defs
     id="defs6866">
    <linearGradient
       id="linearGradient855">
      <stop
         style="stop-color:#000000;stop-opacity:1;"
         offset="0"
         id="stop853" />
    </linearGradient>
  </defs>
  <metadata
     id="metadata5110">
    <rdf:RDF>
      <cc:Work
         rdf:about="">
        <dc:format>image/svg+xml</dc:format>
        <dc:type
           rdf:resource="http://purl.org/dc/dcmitype/StillImage" />
      </cc:Work>
    </rdf:RDF>
  </metadata>
  <ellipse
     style="display:inline;fill:#191919;fill-opacity:1;stroke-width:0.257478"
     id="path266"
     cx="38.863392"
     cy="38.937134"
     rx="38.715904"
     ry="38.789646" />
  <path
     id="rect5488"
     d="m 58.210622,45.013642 -7e-6,-3.3e-5 c -0.0067,-0.0029 -0.01423,-0.0021 -0.02273,0.0021 -0.329578,0.161163 -2.025666,5.561224 -5.106149,9.720855 l -1.109493,1.497581 c -0.259847,0.655722 1.929921,0.0777 3.894336,-1.154967 1.964401,-1.232617 4.223708,-2.626641 5.970696,-3.261818 -0.07699,-0.809694 -1.005396,-2.584577 -1.920298,-4.266922 -0.914927,-1.682335 -1.650365,-1.969315 -1.671215,-2.409156 -0.0037,-0.07697 -0.01514,-0.11874 -0.03514,-0.12764 z m -38.831226,0 -7e-5,3.3e-5 c -0.02,0.0089 -0.0311,0.05067 -0.0351,0.127641 -0.0209,0.43984 -0.75578,0.726821 -1.6707,2.409155 -0.9149,1.682345 -1.84382,3.457229 -1.92082,4.266922 1.74699,0.635178 4.0063,2.029201 5.970702,3.261818 1.96441,1.232667 4.15418,1.810689 3.89433,1.154967 l -1.10897,-1.497581 c -3.08048,-4.159631 -4.777092,-9.559692 -5.106672,-9.720855 -0.008,-0.0042 -0.0157,-0.0051 -0.0227,-0.0021 z M 18.953066,20.53555 h -7.6e-4 c 0,0 -10.3492298,19.805797 -10.6132998,24.033674 0.12471,3.536596 3.7283998,6.160254 4.0514298,5.902484 0.62751,-5.211839 4.51168,-9.485958 5.34334,-14.651821 1.80599,-0.636881 2.29649,2.688334 3.496432,3.617868 4.051,5.695566 7.23917,15.136579 14.39137,19.887157 0.87842,0.583451 1.56793,0.837914 3.16931,0.838708 l 0.004,-6.213573 0.004,6.213573 c 1.60138,-8.15e-4 2.29038,-0.255257 3.1688,-0.838708 7.152201,-4.750578 10.340364,-14.191591 14.39137,-19.887157 1.199938,-0.929534 1.690954,-4.254749 3.496942,-3.617868 0.831662,5.165863 4.71583,9.439982 5.343345,14.651821 0.32303,0.25777 3.926718,-2.365888 4.051432,-5.902484 C 68.986699,40.341347 58.637472,20.53555 58.637472,20.53555 L 38.795268,53.950047 Z"
     style="opacity:0.95;vector-effect:none;fill:#fdfdfd;fill-opacity:1;fill-rule:nonzero;stroke:none;stroke-width:0.23343006;stroke-linecap:butt;stroke-linejoin:miter;stroke-miterlimit:4;stroke-dasharray:none;stroke-dashoffset:0;stroke-opacity:1;paint-order:markers fill stroke" />
</svg>
