<?xml version="1.0" encoding="UTF-8" standalone="no"?>
<!-- Created with Inkscape (http://www.inkscape.org/) -->

<svg
   xmlns:dc="http://purl.org/dc/elements/1.1/"
   xmlns:cc="http://creativecommons.org/ns#"
   xmlns:rdf="http://www.w3.org/1999/02/22-rdf-syntax-ns#"
   xmlns:svg="http://www.w3.org/2000/svg"
   xmlns="http://www.w3.org/2000/svg"
   xmlns:sodipodi="http://sodipodi.sourceforge.net/DTD/sodipodi-0.dtd"
   xmlns:inkscape="http://www.inkscape.org/namespaces/inkscape"
   width="31.113445mm"
   height="31.113512mm"
   viewBox="0 0 31.113446 31.113512"
   version="1.1"
   id="svg1393"
   inkscape:version="0.92.4 5da689c313, 2019-01-14"
   sodipodi:docname="full-zoom.svg">
  <defs
     id="defs1387" />
  <sodipodi:namedview
     id="base"
     pagecolor="#ffffff"
     bordercolor="#666666"
     borderopacity="1.0"
     inkscape:pageopacity="0.0"
     inkscape:pageshadow="2"
     inkscape:zoom="2.8"
     inkscape:cx="-80.724565"
     inkscape:cy="101.27266"
     inkscape:document-units="mm"
     inkscape:current-layer="layer1"
     showgrid="false"
     fit-margin-top="0"
     fit-margin-left="0"
     fit-margin-right="0"
     fit-margin-bottom="0"
     inkscape:window-width="1920"
     inkscape:window-height="1016"
     inkscape:window-x="0"
     inkscape:window-y="27"
     inkscape:window-maximized="1" />
  <metadata
     id="metadata1390">
    <rdf:RDF>
      <cc:Work
         rdf:about="">
        <dc:format>image/svg+xml</dc:format>
        <dc:type
           rdf:resource="http://purl.org/dc/dcmitype/StillImage" />
        <dc:title />
      </cc:Work>
    </rdf:RDF>
  </metadata>
  <g
     inkscape:label="Layer 1"
     inkscape:groupmode="layer"
     id="layer1"
     transform="translate(-95.807959,-154.5343)">
    <g
       id="g1352"
       transform="matrix(0.0662929,0,0,0.0662929,95.807959,154.5343)"
       style="fill:#333333">
      <g
         id="g1291"
         style="fill:#333333">
        <g
           id="g1289"
           style="fill:#333333">
          <g
             id="g1287"
             style="fill:#333333">
            <path
               id="path1279"
               d="M 160,0 H 10.667 C 4.771,0 0,4.771 0,10.667 V 160 c 0,5.896 4.771,10.667 10.667,10.667 H 32 c 5.896,0 10.667,-4.771 10.667,-10.667 V 42.667 H 160 c 5.896,0 10.667,-4.771 10.667,-10.667 V 10.667 C 170.667,4.771 165.896,0 160,0 Z"
               inkscape:connector-curvature="0"
               style="fill:#333333" />
            <path
               id="path1281"
               d="M 458.667,0 H 309.333 c -5.896,0 -10.667,4.771 -10.667,10.667 V 32 c 0,5.896 4.771,10.667 10.667,10.667 H 426.666 V 160 c 0,5.896 4.771,10.667 10.667,10.667 h 21.333 c 5.896,0 10.667,-4.771 10.667,-10.667 V 10.667 C 469.333,4.771 464.563,0 458.667,0 Z"
               inkscape:connector-curvature="0"
               style="fill:#333333" />
            <path
               id="path1283"
               d="m 458.667,298.667 h -21.333 c -5.896,0 -10.667,4.771 -10.667,10.667 V 426.667 H 309.333 c -5.896,0 -10.667,4.771 -10.667,10.667 v 21.333 c 0,5.896 4.771,10.667 10.667,10.667 h 149.333 c 5.896,0 10.667,-4.771 10.667,-10.667 V 309.333 c 0,-5.896 -4.77,-10.666 -10.666,-10.666 z"
               inkscape:connector-curvature="0"
               style="fill:#333333" />
            <path
               id="path1285"
               d="M 160,426.667 H 42.667 V 309.333 c 0,-5.896 -4.771,-10.667 -10.667,-10.667 H 10.667 C 4.771,298.667 0,303.437 0,309.333 v 149.333 c 0,5.896 4.771,10.667 10.667,10.667 H 160 c 5.896,0 10.667,-4.771 10.667,-10.667 v -21.333 c 0,-5.895 -4.771,-10.666 -10.667,-10.666 z"
               inkscape:connector-curvature="0"
               style="fill:#333333" />
          </g>
        </g>
      </g>
      <g
         id="g1293"
         style="fill:#333333" />
      <g
         id="g1295"
         style="fill:#333333" />
      <g
         id="g1297"
         style="fill:#333333" />
      <g
         id="g1299"
         style="fill:#333333" />
      <g
         id="g1301"
         style="fill:#333333" />
      <g
         id="g1303"
         style="fill:#333333" />
      <g
         id="g1305"
         style="fill:#333333" />
      <g
         id="g1307"
         style="fill:#333333" />
      <g
         id="g1309"
         style="fill:#333333" />
      <g
         id="g1311"
         style="fill:#333333" />
      <g
         id="g1313"
         style="fill:#333333" />
      <g
         id="g1315"
         style="fill:#333333" />
      <g
         id="g1317"
         style="fill:#333333" />
      <g
         id="g1319"
         style="fill:#333333" />
      <g
         id="g1321"
         style="fill:#333333" />
    </g>
  </g>
</svg>
