<?xml version="1.0" encoding="UTF-8" standalone="no"?>
<svg
   width="30"
   height="30"
   viewBox="0 0 578 578"
   fill="none"
   version="1.1"
   id="svg312"
   sodipodi:docname="home-icon.svg"
   inkscape:version="1.2.1 (9c6d41e410, 2022-07-14, custom)"
   xmlns:inkscape="http://www.inkscape.org/namespaces/inkscape"
   xmlns:sodipodi="http://sodipodi.sourceforge.net/DTD/sodipodi-0.dtd"
   xmlns="http://www.w3.org/2000/svg"
   xmlns:svg="http://www.w3.org/2000/svg">
  <defs
     id="defs316" />
  <sodipodi:namedview
     id="namedview314"
     pagecolor="#ffffff"
     bordercolor="#000000"
     borderopacity="0.25"
     inkscape:showpageshadow="2"
     inkscape:pageopacity="0.0"
     inkscape:pagecheckerboard="0"
     inkscape:deskcolor="#d1d1d1"
     showgrid="false"
     inkscape:zoom="1.3875433"
     inkscape:cx="287.91895"
     inkscape:cy="289"
     inkscape:window-width="1920"
     inkscape:window-height="1011"
     inkscape:window-x="0"
     inkscape:window-y="0"
     inkscape:window-maximized="1"
     inkscape:current-layer="svg312" />
  <path
     d="M240.589 336.862H336.824V505.274H240.589V336.862Z"
     fill="#231F20"
     id="path308"
     style="fill:#ffffff;fill-opacity:1" />
  <path
     d="M491.281 244.958L305.788 55.374C303.551 53.119 300.89 51.3292 297.958 50.1077C295.027 48.8863 291.882 48.2574 288.706 48.2574C285.53 48.2574 282.385 48.8863 279.454 50.1077C276.522 51.3292 273.861 53.119 271.624 55.374L86.1305 245.198C81.642 249.723 78.0971 255.094 75.7017 261C73.3062 266.906 72.1079 273.229 72.1764 279.602V481.216C72.1577 493.532 76.8624 505.386 85.3215 514.337C93.7806 523.289 105.35 528.656 117.648 529.333H192.471V312.804C192.471 306.423 195.005 300.303 199.517 295.791C204.029 291.28 210.149 288.745 216.529 288.745H360.883C367.263 288.745 373.383 291.28 377.895 295.791C382.407 300.303 384.941 306.423 384.941 312.804V529.333H459.764C472.062 528.656 483.631 523.289 492.09 514.337C500.55 505.386 505.254 493.532 505.236 481.216V279.602C505.255 266.681 500.251 254.258 491.281 244.958V244.958Z"
     fill="#231F20"
     id="path310"
     style="fill:#ffffff;fill-opacity:1" />
</svg>
