<?xml version="1.0" encoding="UTF-8" standalone="no"?>
<svg
   width="16"
   height="16"
   version="1.1"
   id="svg200"
   sodipodi:docname="more-info.svg"
   inkscape:version="1.2.1 (9c6d41e410, 2022-07-14, custom)"
   xmlns:inkscape="http://www.inkscape.org/namespaces/inkscape"
   xmlns:sodipodi="http://sodipodi.sourceforge.net/DTD/sodipodi-0.dtd"
   xmlns="http://www.w3.org/2000/svg"
   xmlns:svg="http://www.w3.org/2000/svg">
  <defs
     id="defs204" />
  <sodipodi:namedview
     id="namedview202"
     pagecolor="#ffffff"
     bordercolor="#000000"
     borderopacity="0.25"
     inkscape:showpageshadow="2"
     inkscape:pageopacity="0.0"
     inkscape:pagecheckerboard="0"
     inkscape:deskcolor="#d1d1d1"
     showgrid="false"
     inkscape:zoom="45.387417"
     inkscape:cx="6.4224849"
     inkscape:cy="7.3368352"
     inkscape:window-width="1920"
     inkscape:window-height="1007"
     inkscape:window-x="0"
     inkscape:window-y="0"
     inkscape:window-maximized="1"
     inkscape:current-layer="svg200" />
  <path
     fill-rule="evenodd"
     d="m 4.6474794,2.2643905 c 1.3333328,0 1.3333328,2 0,2 h -1 V 12.26439 h 7.9999996 v -1 c 0,-1.3333323 2,-1.3333323 2,0 v 1 c 0,1.104569 -0.895431,2 -2,2 H 3.6474794 c -1.1045695,0 -2,-0.895431 -2,-2 V 4.2643905 c 0,-1.1045695 0.8954305,-2 2,-2 z m 9.9999996,-1 v 4.998 c 0,1.3333328 -2,1.3333328 -2,0 v -1.584 c -1.948578,2.2798556 -2.9108756,2.9457972 -4.2839996,4.284 -0.9425213,0.9758644 -2.3898644,-0.4714787 -1.414,-1.414 l 4.2829996,-4.284 H 9.6424794 c -1.3333328,0 -1.3333328,-2 0,-2 z"
     id="path198"
     style="fill:#070000;fill-opacity:1"
     sodipodi:nodetypes="sscccssssssssscssccccssc" />
</svg>
